<svg width="22" height="21" viewBox="0 0 22 21" fill="none" xmlns="http://www.w3.org/2000/svg">
<path d="M18.4062 9.45566C18.0554 9.45566 17.7645 9.16477 17.7645 8.814V6.35856L10.8003 2.87644L3.83607 6.35856V8.814C3.83607 9.16477 3.54518 9.45566 3.1944 9.45566C2.84362 9.45566 2.55273 9.16477 2.55273 8.814V5.96499C2.55273 5.72544 2.68966 5.503 2.91211 5.39177L10.518 1.59311C10.6976 1.49899 10.9115 1.49899 11.0912 1.59311L18.6971 5.39177C18.911 5.503 19.0564 5.72544 19.0564 5.96499V8.814C19.0479 9.16477 18.757 9.45566 18.4062 9.45566Z" fill="white"/>
<path d="M10.8003 19.9105C10.6976 19.9105 10.6035 19.8849 10.518 19.8421L2.91211 16.0434C2.69822 15.9322 2.55273 15.7097 2.55273 15.4702V12.6212C2.55273 12.2704 2.84362 11.9795 3.1944 11.9795C3.54518 11.9795 3.83607 12.2704 3.83607 12.6212V15.0766L10.8003 18.5587L17.7645 15.0766V12.6212C17.7645 12.2704 18.0554 11.9795 18.4062 11.9795C18.757 11.9795 19.0479 12.2704 19.0479 12.6212V15.4702C19.0479 15.7097 18.9109 15.9322 18.6885 16.0434L11.0827 19.8421C10.9971 19.8849 10.903 19.9105 10.8003 19.9105Z" fill="white"/>
<path d="M14.5988 10.7133C14.5988 8.6172 12.8962 6.91464 10.8001 6.91464C8.70402 6.91464 7.00146 8.6172 7.00146 10.7133C7.00146 12.5955 8.37893 14.1526 10.1756 14.4521C10.1756 14.4778 10.167 14.4949 10.167 14.512V19.2689C10.167 19.6196 10.4579 19.9105 10.8087 19.9105C11.1595 19.9105 11.4504 19.6196 11.4504 19.2689V14.512C11.4504 14.4863 11.4418 14.4692 11.4418 14.4521C13.2299 14.1526 14.5988 12.5955 14.5988 10.7133Z" fill="white"/>
</svg>
