<svg width="30" height="31" viewBox="0 0 30 31" fill="none" xmlns="http://www.w3.org/2000/svg">
<g clip-path="url(#clip0_302_5680)">
<path d="M29.5482 19.1284C27.5447 27.1642 19.4053 32.0542 11.3686 30.0507C3.33566 28.0473 -1.55481 19.9079 0.449097 11.8726C2.4516 3.83588 10.5905 -1.05505 18.6249 0.948385C26.6611 2.95182 31.5516 11.0921 29.5482 19.1284Z" fill="#F7931A"/>
<path d="M21.6121 13.363C21.9102 11.367 20.3905 10.2941 18.3126 9.57828L18.9866 6.87453L17.3404 6.46438L16.6841 9.09687C16.252 8.98906 15.8076 8.88734 15.366 8.78656L16.027 6.13672L14.3821 5.72656L13.7076 8.42938C13.3495 8.34781 12.9979 8.26719 12.6566 8.18234L12.6585 8.17391L10.3888 7.60719L9.95102 9.365C9.95102 9.365 11.1721 9.64484 11.1463 9.66219C11.8129 9.82859 11.9338 10.2697 11.9132 10.6194L11.1454 13.6995C11.1913 13.7112 11.2509 13.7281 11.3165 13.7544L11.143 13.7112L10.0663 18.0261C9.98477 18.2286 9.77805 18.5323 9.31211 18.417C9.32852 18.4409 8.11586 18.1184 8.11586 18.1184L7.29883 20.0028L9.44102 20.5367C9.83945 20.6366 10.2299 20.7411 10.6138 20.8395L9.93273 23.5747L11.5766 23.9848L12.2516 21.2792C12.7002 21.4011 13.1362 21.5136 13.5627 21.6195L12.8905 24.3125L14.5363 24.7227L15.2174 21.9931C18.0238 22.5242 20.1346 22.31 21.022 19.7722C21.7377 17.7284 20.9868 16.5495 19.5102 15.7803C20.5855 15.5314 21.396 14.8241 21.6121 13.363ZM17.8513 18.6359C17.3423 20.6797 13.9016 19.5753 12.7855 19.2978L13.6893 15.6748C14.8049 15.9533 18.3815 16.5045 17.8513 18.6359ZM18.3599 13.3334C17.8959 15.1925 15.0318 14.248 14.1023 14.0164L14.9216 10.7305C15.8512 10.962 18.8437 11.3942 18.3599 13.3334Z" fill="white"/>
</g>
<defs>
<clipPath id="clip0_302_5680">
<rect width="30" height="30" fill="white" transform="translate(0 0.5)"/>
</clipPath>
</defs>
</svg>
