<svg width="24.000000" height="24.000000" viewBox="0 0 24 24" fill="none" xmlns="http://www.w3.org/2000/svg" xmlns:xlink="http://www.w3.org/1999/xlink">
	<desc>
			Created with Pixso.
	</desc>
	<defs/>
	<path id="Icon" d="M4.25 5C4.25 3.4812 5.4812 2.25 7 2.25L14.9868 2.25C15.5505 2.25 16.0798 2.52161 16.4086 2.97949L19.4216 7.17749C19.6351 7.47485 19.75 7.83179 19.75 8.19788L19.75 19C19.75 20.5188 18.5188 21.75 17 21.75L7 21.75C5.4812 21.75 4.25 20.5188 4.25 19L4.25 5ZM7 3.75C6.30969 3.75 5.75 4.30969 5.75 5L5.75 19C5.75 19.6903 6.30969 20.25 7 20.25L17 20.25C17.6903 20.25 18.25 19.6903 18.25 19L18.25 8.89709L15 8.89709C14.5858 8.89709 14.25 8.56128 14.25 8.14709L14.25 3.75L7 3.75Z" fill="#FFFFFF" fill-opacity="1.000000" fill-rule="evenodd"/>
</svg>
