<svg width="20" height="16" viewBox="0 0 20 16" fill="none" xmlns="http://www.w3.org/2000/svg">
<path d="M16.9419 1.58449C15.6473 0.984446 14.263 0.54836 12.8157 0.300049C12.638 0.618375 12.4304 1.04653 12.2872 1.38713C10.7488 1.15794 9.22445 1.15794 7.7143 1.38713C7.57116 1.04653 7.3588 0.618375 7.17947 0.300049C5.73067 0.54836 4.3448 0.986049 3.05016 1.58767C0.438869 5.49664 -0.269009 9.30851 0.0849306 13.0663C1.81688 14.3475 3.49534 15.1258 5.14548 15.6351C5.55291 15.0796 5.91628 14.4892 6.22931 13.8668C5.63313 13.6424 5.06211 13.3655 4.52256 13.044C4.6657 12.9389 4.80571 12.8291 4.94098 12.7161C8.23183 14.2409 11.8074 14.2409 15.0589 12.7161C15.1958 12.8291 15.3358 12.9389 15.4774 13.044C14.9362 13.3671 14.3637 13.644 13.7675 13.8684C14.0805 14.4892 14.4423 15.0812 14.8513 15.6367C16.503 15.1274 18.1831 14.3491 19.915 13.0663C20.3303 8.71007 19.2056 4.9332 16.9419 1.58449ZM6.67765 10.7553C5.68977 10.7553 4.87963 9.84169 4.87963 8.72917C4.87963 7.61664 5.67247 6.70148 6.67765 6.70148C7.68285 6.70148 8.49297 7.61504 8.47567 8.72917C8.47723 9.84169 7.68285 10.7553 6.67765 10.7553ZM13.3223 10.7553C12.3344 10.7553 11.5243 9.84169 11.5243 8.72917C11.5243 7.61664 12.3171 6.70148 13.3223 6.70148C14.3275 6.70148 15.1376 7.61504 15.1203 8.72917C15.1203 9.84169 14.3275 10.7553 13.3223 10.7553Z" fill="#5865F2"/>
</svg>
