<svg width="20" height="20" viewBox="0 0 20 20" fill="none" xmlns="http://www.w3.org/2000/svg">
<path d="M3.33334 16.6667H2.50001C2.50001 17.1269 2.87311 17.5 3.33334 17.5V16.6667ZM16.6667 17.5C17.1269 17.5 17.5 17.1269 17.5 16.6667C17.5 16.2064 17.1269 15.8333 16.6667 15.8333V17.5ZM3.33334 13.3333L2.74409 12.7441C2.58781 12.9004 2.50001 13.1123 2.50001 13.3333H3.33334ZM12.3905 4.27613L11.8013 3.68687L11.8013 3.68687L12.3905 4.27613ZM14.2761 4.27613L13.6869 4.86538L13.6869 4.86538L14.2761 4.27613ZM15.7238 5.72384L16.3131 5.13459L16.3131 5.13459L15.7238 5.72384ZM15.7239 7.60946L15.1346 7.0202L15.1346 7.02021L15.7239 7.60946ZM6.66668 16.6667L6.66668 17.5C6.88769 17.5 7.09965 17.4122 7.25593 17.2559L6.66668 16.6667ZM16.2807 6.40918L17.0733 6.15166L17.0733 6.15166L16.2807 6.40918ZM16.2807 6.92414L15.4882 6.66662L15.4882 6.66662L16.2807 6.92414ZM13.0758 3.71928L12.8183 2.92674L12.8183 2.92674L13.0758 3.71928ZM13.5909 3.71928L13.8484 2.92674L13.8484 2.92674L13.5909 3.71928ZM10.5893 6.07742C10.2638 5.75198 9.73619 5.75198 9.41075 6.07742C9.08532 6.40285 9.08532 6.93049 9.41075 7.25593L10.5893 6.07742ZM12.7441 10.5893C13.0695 10.9147 13.5972 10.9147 13.9226 10.5893C14.248 10.2638 14.248 9.73619 13.9226 9.41075L12.7441 10.5893ZM3.33334 17.5H16.6667V15.8333H3.33334V17.5ZM4.16668 16.6667V13.3333H2.50001V16.6667H4.16668ZM3.9226 13.9226L12.9798 4.86538L11.8013 3.68687L2.74409 12.7441L3.9226 13.9226ZM13.6869 4.86538L15.1346 6.3131L16.3131 5.13459L14.8654 3.68687L13.6869 4.86538ZM15.1346 7.02021L6.07742 16.0774L7.25593 17.2559L16.3131 8.19872L15.1346 7.02021ZM6.66667 15.8333L3.33334 15.8333L3.33335 17.5L6.66668 17.5L6.66667 15.8333ZM15.1346 6.3131C15.3093 6.48783 15.4045 6.58391 15.4676 6.65823C15.5244 6.72513 15.5048 6.71786 15.4882 6.66669L17.0733 6.15166C16.9948 5.91021 16.8618 5.72529 16.7381 5.57959C16.6208 5.44132 16.4684 5.28987 16.3131 5.13459L15.1346 6.3131ZM16.3131 8.19872C16.4684 8.04343 16.6208 7.89198 16.7382 7.75371C16.8619 7.608 16.9948 7.42308 17.0733 7.18165L15.4882 6.66662C15.5048 6.61546 15.5244 6.6082 15.4676 6.67509C15.4045 6.7494 15.3093 6.84548 15.1346 7.0202L16.3131 8.19872ZM15.4882 6.66669L15.4882 6.66662L17.0733 7.18165C17.182 6.84691 17.182 6.4864 17.0733 6.15166L15.4882 6.66669ZM12.9798 4.86538C13.1545 4.69066 13.2506 4.59551 13.3249 4.53243C13.3918 4.47566 13.3845 4.49521 13.3334 4.51183L12.8183 2.92674C12.5769 3.00518 12.392 3.13814 12.2463 3.26184C12.108 3.37922 11.9566 3.53158 11.8013 3.68687L12.9798 4.86538ZM14.8654 3.68687C14.7101 3.53163 14.5587 3.37926 14.4205 3.2619C14.2748 3.13821 14.0899 3.0052 13.8484 2.92674L13.3334 4.51183C13.2822 4.49519 13.2749 4.4756 13.3418 4.53237C13.4161 4.59547 13.5121 4.69062 13.6869 4.86538L14.8654 3.68687ZM13.3334 4.51183H13.3334L13.8484 2.92674C13.5137 2.81797 13.1531 2.81797 12.8183 2.92674L13.3334 4.51183ZM9.41075 7.25593L12.7441 10.5893L13.9226 9.41075L10.5893 6.07742L9.41075 7.25593Z" fill="white"/>
</svg>
