<svg width="17.447998" height="15.091064" viewBox="0 0 17.448 15.0911" fill="none" xmlns="http://www.w3.org/2000/svg" xmlns:xlink="http://www.w3.org/1999/xlink">
	<desc>
			Created with Pixso.
	</desc>
	<defs/>
	<path id="Union" d="M14.6785 15.0911L1.17847 1.59106L2.76953 0L4.86353 2.09424C5.94165 1.54248 7.22485 1.17041 8.72388 1.17041C11.7632 1.17041 13.916 2.69971 15.2671 4.15479C15.9431 4.88281 16.4341 5.60718 16.7571 6.14966C16.9192 6.42212 17.0405 6.65137 17.1233 6.81665C17.1646 6.89941 17.1963 6.96631 17.2188 7.01465C17.23 7.03882 17.2388 7.05859 17.2454 7.07324L17.2534 7.09155L17.2561 7.0979L17.2576 7.10132C17.2576 7.10132 17.2581 7.10229 16.2239 7.54541C17.2581 7.98853 17.2576 7.9895 17.2576 7.9895L17.2561 7.99292L17.2534 7.99927L17.2454 8.01758C17.2388 8.03223 17.23 8.052 17.2188 8.07617C17.1963 8.12451 17.1646 8.19141 17.1233 8.27417C17.0405 8.43945 16.9192 8.6687 16.7571 8.94116C16.4341 9.48364 15.9431 10.208 15.2671 10.936C15.0283 11.1931 14.7644 11.4526 14.4751 11.7056L16.2695 13.5L14.6785 15.0911ZM16.2239 7.54541L17.2581 7.10229L17.448 7.54541L17.2581 7.98853L16.2239 7.54541ZM8.72388 3.42041C7.92749 3.42041 7.21069 3.5625 6.5686 3.79932L12.8799 10.1104C13.1484 9.88452 13.3943 9.64624 13.6184 9.40479C14.1611 8.82031 14.5605 8.23218 14.8237 7.79028C14.8762 7.7019 14.9231 7.61987 14.9644 7.54541C14.9231 7.47095 14.8762 7.38892 14.8237 7.30054C14.5605 6.85864 14.1611 6.27051 13.6184 5.68604C12.532 4.51611 10.9348 3.42041 8.72388 3.42041ZM9.68604 11.5986L11.5352 13.4478C10.6995 13.7415 9.76367 13.9204 8.72388 13.9204C5.68481 13.9204 3.53198 12.3911 2.18091 10.936C1.50488 10.208 1.01367 9.48364 0.690918 8.94116C0.528809 8.6687 0.407227 8.43945 0.324707 8.27417C0.283203 8.19141 0.251465 8.12451 0.229248 8.07617C0.218018 8.052 0.209229 8.03223 0.202637 8.01758L0.19458 7.99927L0.191895 7.99292L0.190674 7.99048L0.19043 7.9895C0.19043 7.9895 0.189941 7.98853 1.22388 7.54541L0.189941 7.98853L0 7.54541L0.189941 7.10229L1.22388 7.54541C0.189941 7.10229 0.19043 7.10132 0.19043 7.10132L0.190674 7.10034L0.191895 7.0979L0.19458 7.09155L0.202637 7.07324C0.209229 7.05859 0.218018 7.03882 0.229248 7.01465C0.251465 6.96631 0.283203 6.89941 0.324707 6.81665C0.407227 6.65137 0.528809 6.42212 0.690918 6.14966C1.01367 5.60718 1.50488 4.88281 2.18091 4.15479L2.21045 4.12305L3.80249 5.71509C3.27344 6.29004 2.88281 6.86597 2.62427 7.30054C2.57153 7.38892 2.5249 7.47095 2.48364 7.54541C2.5249 7.61987 2.57153 7.7019 2.62427 7.79028C2.88721 8.23218 3.28687 8.82031 3.82959 9.40479C4.91602 10.5747 6.51318 11.6704 8.72388 11.6704C9.05859 11.6704 9.37915 11.6453 9.68604 11.5986Z" fill="#868383" fill-opacity="1.000000" fill-rule="evenodd"/>
</svg>
