<svg width="16.000000" height="16.000000" viewBox="0 0 16 16" fill="none" xmlns="http://www.w3.org/2000/svg" xmlns:xlink="http://www.w3.org/1999/xlink">
	<desc>
			Created with Pixso.
	</desc>
	<defs>
		<clipPath id="clip1_1551">
			<rect id="Key" width="16.000000" height="16.000000" fill="white" fill-opacity="0"/>
		</clipPath>
	</defs>
	<g clip-path="url(#clip1_1551)">
		<path id="Union" d="M6 4C6 2.89539 6.89539 2 8 2C9.10461 2 10 2.89539 10 4L10 4.66663L12 4.66663L12 4C12 1.79089 10.2091 0 8 0C5.79089 0 4 1.79089 4 4L4 6L2 6L2 16L14 16L14 6L6 6L6 4ZM4 14L4 8L12 8L12 14L4 14Z" fill="#FFFFFF" fill-opacity="1.000000" fill-rule="evenodd"/>
	</g>
</svg>
