<svg width="226" height="126" viewBox="0 0 226 126" fill="none" xmlns="http://www.w3.org/2000/svg">
<path d="M35.2262 103.538H32.7628V97.922H45.0799V103.538H42.6165V120.384H45.0799V126H32.7628V120.384H35.2262V103.538Z" fill="#DCE0E0"/>
<path d="M150.655 103.538H148.192V97.922H160.509V103.538H158.045V120.384H160.509V126H148.192V120.384H150.655V103.538Z" fill="#DCE0E0"/>
<path fill-rule="evenodd" clip-rule="evenodd" d="M20.4457 97.922H0.0344849V126H7.42475V118.279H20.4457L24.6687 114.067V102.134L20.4457 97.922ZM17.2784 104.24V111.961H7.42475V104.24H17.2784Z" fill="#DCE0E0"/>
<path fill-rule="evenodd" clip-rule="evenodd" d="M73.2333 97.922H52.8221V126H60.2124V118.279H73.2333L77.4563 114.067V102.134L73.2333 97.922ZM70.0661 104.24V111.961H60.2124V104.24H70.0661Z" fill="#DCE0E0"/>
<path d="M86.6062 121.788V97.922H110.537V104.24H93.9965V108.802H108.073V115.12H93.9965V119.682H110.537V126H90.8292L86.6062 121.788Z" fill="#DCE0E0"/>
<path d="M202.035 121.788V97.922H225.966V104.24H209.425V108.802H223.502V115.12H209.425V119.682H225.966V126H206.258L202.035 121.788Z" fill="#DCE0E0"/>
<path d="M119.335 121.788V97.922H126.725V119.682H141.857V126H123.558L119.335 121.788Z" fill="#DCE0E0"/>
<path d="M174.816 97.922H168.251V126H175.641V110.174L186.672 126H193.237V97.922H185.847V113.748L174.816 97.922Z" fill="white"/>
<path d="M76.4006 0H98.9233V11.2312H76.4006V0Z" fill="white"/>
<path d="M101.739 0H124.261V11.2312H101.739V0Z" fill="white"/>
<path d="M127.077 0H149.599V11.2312H127.077V0Z" fill="white"/>
<path d="M76.4006 14.039H98.9233V25.2702H76.4006V14.039Z" fill="white"/>
<path d="M101.739 14.039H124.261V25.2702H101.739V14.039Z" fill="white"/>
<path d="M127.077 14.039H149.599V25.2702H127.077V14.039Z" fill="white"/>
<path d="M76.4006 28.078H98.9233V39.3092H76.4006V28.078Z" fill="white"/>
<path d="M101.739 28.078H124.261V39.3092H101.739V28.078Z" fill="white"/>
<path d="M127.077 28.078H149.599V39.3092H127.077V28.078Z" fill="white"/>
<path d="M76.4006 42.117H98.9233V53.3482H76.4006V42.117Z" fill="white"/>
<path d="M101.739 42.117H124.261V53.3482H101.739V42.117Z" fill="white"/>
<path d="M127.077 42.117H149.599V53.3482H127.077V42.117Z" fill="white"/>
<path d="M76.4006 56.156H98.9233V67.3872H76.4006V56.156Z" fill="white"/>
<path d="M101.739 56.156H124.261V67.3872H101.739V56.156Z" fill="white"/>
</svg>
