<svg width="22" height="20" viewBox="0 0 22 20" fill="none" xmlns="http://www.w3.org/2000/svg">
<path d="M0.166626 0H6.83329V3.33333H0.166626V0Z" fill="#DCE0E0"/>
<path d="M7.66663 0H14.3333V3.33333H7.66663V0Z" fill="#DCE0E0"/>
<path d="M15.1666 0H21.8333V3.33333H15.1666V0Z" fill="#DCE0E0"/>
<path d="M0.166626 4.16667H6.83329V7.5H0.166626V4.16667Z" fill="#DCE0E0"/>
<path d="M7.66663 4.16667H14.3333V7.5H7.66663V4.16667Z" fill="#DCE0E0"/>
<path d="M15.1666 4.16667H21.8333V7.5H15.1666V4.16667Z" fill="#DCE0E0"/>
<path d="M0.166626 8.33333H6.83329V11.6667H0.166626V8.33333Z" fill="#DCE0E0"/>
<path d="M7.66663 8.33333H14.3333V11.6667H7.66663V8.33333Z" fill="#DCE0E0"/>
<path d="M15.1666 8.33333H21.8333V11.6667H15.1666V8.33333Z" fill="#DCE0E0"/>
<path d="M0.166626 12.5H6.83329V15.8333H0.166626V12.5Z" fill="#DCE0E0"/>
<path d="M7.66663 12.5H14.3333V15.8333H7.66663V12.5Z" fill="#DCE0E0"/>
<path d="M15.1666 12.5H21.8333V15.8333H15.1666V12.5Z" fill="#DCE0E0"/>
<path d="M0.166626 16.6667H6.83329V20H0.166626V16.6667Z" fill="#DCE0E0"/>
<path d="M7.66663 16.6667H14.3333V20H7.66663V16.6667Z" fill="#DCE0E0"/>
</svg>
