<svg width="60" height="60" viewBox="0 0 60 60" fill="none" xmlns="http://www.w3.org/2000/svg">
<rect width="60" height="60" rx="4" fill="#131212"/>
<path d="M14 14.7273H23.8462V19.6504H14V14.7273Z" fill="#DCE0E0"/>
<path d="M25.0769 14.7273H34.9231V19.6504H25.0769V14.7273Z" fill="#DCE0E0"/>
<path d="M36.1538 14.7273H46V19.6504H36.1538V14.7273Z" fill="#DCE0E0"/>
<path d="M14 20.8811H23.8462V25.8042H14V20.8811Z" fill="#DCE0E0"/>
<path d="M25.0769 20.8811H34.9231V25.8042H25.0769V20.8811Z" fill="#DCE0E0"/>
<path d="M36.1538 20.8811H46V25.8042H36.1538V20.8811Z" fill="#DCE0E0"/>
<path d="M14 27.035H23.8462V31.9581H14V27.035Z" fill="#DCE0E0"/>
<path d="M25.0769 27.035H34.9231V31.9581H25.0769V27.035Z" fill="#DCE0E0"/>
<path d="M36.1538 27.035H46V31.9581H36.1538V27.035Z" fill="#DCE0E0"/>
<path d="M14 33.1888H23.8462V38.1119H14V33.1888Z" fill="#DCE0E0"/>
<path d="M25.0769 33.1888H34.9231V38.1119H25.0769V33.1888Z" fill="#DCE0E0"/>
<path d="M36.1538 33.1888H46V38.1119H36.1538V33.1888Z" fill="#DCE0E0"/>
<path d="M14 39.3427H23.8462V44.2658H14V39.3427Z" fill="#DCE0E0"/>
<path d="M25.0769 39.3427H34.9231V44.2658H25.0769V39.3427Z" fill="#DCE0E0"/>
</svg>
