<svg width="124" height="124" viewBox="0 0 124 124" fill="none" xmlns="http://www.w3.org/2000/svg">
<path fill-rule="evenodd" clip-rule="evenodd" d="M108.5 124H15.5V0H82.6667L108.5 25.8333V124Z" fill="#2C2A2A"/>
<path fill-rule="evenodd" clip-rule="evenodd" d="M36.1666 41.3333H51.6666V56.8333H36.1666V41.3333ZM72.3333 41.3333H87.8333V56.8333H72.3333V41.3333ZM48.3249 89.6617C48.3249 89.6617 48.3267 89.66 46.5 87.8333C44.6733 86.0066 44.6771 86.0028 44.6771 86.0028L44.6814 85.9985L44.6915 85.9885L44.7176 85.963L44.7937 85.8906C44.8549 85.8332 44.9374 85.7578 45.041 85.6671C45.2483 85.4858 45.5408 85.2428 45.9187 84.9594C46.6742 84.3927 47.7743 83.6621 49.2197 82.9394C52.1189 81.4898 56.387 80.0833 62 80.0833C67.6129 80.0833 71.881 81.4898 74.7803 82.9394C76.2257 83.6621 77.3257 84.3927 78.0812 84.9594C78.4592 85.2428 78.7517 85.4858 78.9589 85.6671C79.0626 85.7578 79.145 85.8332 79.2063 85.8906L79.2823 85.963L79.3084 85.9885L79.3185 85.9985L79.3248 86.0048C79.3248 86.0048 79.3267 86.0066 77.5 87.8333C76.4174 88.9159 75.9759 89.3565 75.796 89.5361C75.6725 89.6593 75.6726 89.6599 75.6726 89.6599C75.6531 89.6417 75.6144 89.606 75.5566 89.5555C75.441 89.4543 75.2491 89.2936 74.9812 89.0927C74.4451 88.6906 73.6076 88.1296 72.4697 87.5606C70.2022 86.4269 66.7203 85.25 62 85.25C57.2796 85.25 53.7977 86.4269 51.5303 87.5606C50.3923 88.1296 49.5549 88.6906 49.0187 89.0927C48.7508 89.2936 48.559 89.4543 48.4433 89.5555L48.3817 89.6099L48.3249 89.6617ZM75.6726 89.6599L75.6795 89.6662L75.6874 89.6739L75.6726 89.6599Z" fill="#4A4747"/>
<path d="M51.6666 41.3333H36.1666V56.8333H51.6666V41.3333Z" fill="#4A4747"/>
<path d="M87.8333 41.3333H72.3333V56.8333H87.8333V41.3333Z" fill="#4A4747"/>
<path d="M46.5 87.8333C48.3267 89.66 48.3249 89.6617 48.3249 89.6617L48.3817 89.6099L48.4433 89.5555C48.559 89.4543 48.7508 89.2936 49.0187 89.0927C49.5549 88.6906 50.3923 88.1296 51.5303 87.5606C53.7977 86.4269 57.2796 85.25 62 85.25C66.7203 85.25 70.2022 86.4269 72.4697 87.5606C73.6076 88.1296 74.4451 88.6906 74.9812 89.0927C75.2491 89.2936 75.441 89.4543 75.5566 89.5555C75.6144 89.606 75.6531 89.6417 75.6726 89.6599C75.6726 89.6599 75.6725 89.6593 75.796 89.5361C75.9759 89.3565 76.4174 88.9159 77.5 87.8333C79.3267 86.0066 79.3248 86.0048 79.3248 86.0048L79.3185 85.9985L79.3084 85.9885L79.2823 85.963L79.2063 85.8906C79.145 85.8332 79.0626 85.7578 78.9589 85.6671C78.7517 85.4858 78.4592 85.2428 78.0812 84.9594C77.3257 84.3927 76.2257 83.6621 74.7803 82.9394C71.881 81.4898 67.6129 80.0833 62 80.0833C56.387 80.0833 52.1189 81.4898 49.2197 82.9394C47.7743 83.6621 46.6742 84.3927 45.9187 84.9594C45.5408 85.2428 45.2483 85.4858 45.041 85.6671C44.9374 85.7578 44.8549 85.8332 44.7937 85.8906L44.7176 85.963L44.6915 85.9885L44.6814 85.9985L44.6771 86.0028C44.6771 86.0028 44.6733 86.0066 46.5 87.8333Z" fill="#4A4747"/>
</svg>
