<svg width="24" height="24" viewBox="0 0 24 24" fill="none" xmlns="http://www.w3.org/2000/svg">
<g clip-path="url(#clip0_131_260)">
<path fill-rule="evenodd" clip-rule="evenodd" d="M8.40595 3.43379C8.30136 3.86428 8.00321 4.21897 7.61976 4.44085C7.23566 4.6631 6.78115 4.74284 6.35531 4.61796L3.29747 3.72124C1.99668 5.08574 1.01411 6.7563 0.468775 8.61388L2.77825 10.8175C3.09869 11.1232 3.2571 11.5571 3.2571 12C3.2571 12.4429 3.09869 12.8768 2.77825 13.1825L0.468775 15.3861C1.01411 17.2437 1.99668 18.9143 3.29747 20.2788L6.35532 19.382C6.78115 19.2572 7.23566 19.3369 7.61976 19.5592C8.00321 19.781 8.30136 20.1357 8.40595 20.5662L9.15895 23.6655C10.065 23.8841 11.0112 24 11.9844 24C12.9576 24 13.9038 23.8841 14.8098 23.6655L15.5628 20.5662C15.6674 20.1357 15.9656 19.781 16.349 19.5591C16.7331 19.3369 17.1876 19.2572 17.6134 19.382L20.6713 20.2788C21.9721 18.9143 22.9547 17.2437 23.5 15.3861L21.1905 13.1825C20.8701 12.8768 20.7117 12.4429 20.7117 12C20.7117 11.5571 20.8701 11.1232 21.1905 10.8175L23.5 8.61387C22.9547 6.7563 21.9721 5.08574 20.6713 3.72123L17.6134 4.61797C17.1876 4.74284 16.7331 4.66311 16.349 4.44085C15.9656 4.21898 15.6674 3.86429 15.5628 3.4338L14.8098 0.334524C13.9038 0.115854 12.9576 0 11.9844 0C11.0112 0 10.065 0.115855 9.15895 0.334526L8.40595 3.43379ZM11.9844 17.4545C14.9968 17.4545 17.4389 15.0125 17.4389 12C17.4389 8.98754 14.9968 6.54545 11.9844 6.54545C8.97192 6.54545 6.52983 8.98754 6.52983 12C6.52983 15.0125 8.97192 17.4545 11.9844 17.4545Z" fill="black"/>
</g>
<defs>
<clipPath id="clip0_131_260">
<rect width="24" height="24" fill="white"/>
</clipPath>
</defs>
</svg>
