<svg width="20" height="20" viewBox="0 0 20 20" fill="none" xmlns="http://www.w3.org/2000/svg">
<path fill-rule="evenodd" clip-rule="evenodd" d="M13.9973 10.9151C15.1276 9.85119 15.8333 8.3413 15.8333 6.66658C15.8333 3.44492 13.2216 0.833252 9.99998 0.833252C6.77832 0.833252 4.16665 3.44492 4.16665 6.66658C4.16665 8.3413 4.87238 9.85119 6.00268 10.9151C2.94282 12.4001 0.833313 15.537 0.833313 19.1666H3.33331C3.33331 15.4847 6.31808 12.4999 9.99998 12.4999C13.6819 12.4999 16.6666 15.4847 16.6666 19.1666H19.1666C19.1666 15.537 17.0571 12.4001 13.9973 10.9151ZM6.66665 6.66658C6.66665 4.82564 8.15903 3.33325 9.99998 3.33325C11.8409 3.33325 13.3333 4.82564 13.3333 6.66658C13.3333 8.50753 11.8409 9.99992 9.99998 9.99992C8.15903 9.99992 6.66665 8.50753 6.66665 6.66658Z" fill="#FFA500"/>
</svg>
