<svg width="16" height="17" viewBox="0 0 16 17" fill="none" xmlns="http://www.w3.org/2000/svg">
<path fill-rule="evenodd" clip-rule="evenodd" d="M2 0.25V2.5H0.5V4.75H2V7.375H0.5V9.625H2V12.25H0.5V14.5H2V16.75H15.5V0.25H2ZM4.25 14.5H13.25V2.5H4.25V14.5Z" fill="#868383"/>
<path d="M10.25 6.25C10.25 7.07843 9.57843 7.75 8.75 7.75C7.92157 7.75 7.25 7.07843 7.25 6.25C7.25 5.42157 7.92157 4.75 8.75 4.75C9.57843 4.75 10.25 5.42157 10.25 6.25Z" fill="#868383"/>
<path d="M5.75 11.5C5.75 10.8025 5.75 10.4538 5.82667 10.1677C6.03472 9.3912 6.6412 8.78472 7.41766 8.57667C7.70378 8.5 8.05252 8.5 8.75 8.5Lnan nanL8.75 8.5C9.44748 8.5 9.79622 8.5 10.0823 8.57667C10.8588 8.78472 11.4653 9.3912 11.6733 10.1677C11.75 10.4538 11.75 10.8025 11.75 11.5V12.25H5.75V11.5Z" fill="#868383"/>
</svg>
